M48
METRIC,TZ,0000.00
T01C0.40
T02C0.85
T03C0.95
T04C1.05
T05C3.20
T06C3.60
%
T01
X+14033Y+11557
Y+11811
Y+12065
X+14986Y+9715
X+14033Y+12954
X+15113Y+9842
X+15367
X+15240Y+9715
X+14478
X+13716
T02
X+14287Y+8826
X+13525
X+14859Y+9461
X+14097
X+14351
X+13335
X+13589
X+12827
X+14605
X+13843
X+13081
X+14224Y+16335
X+13208
T03
X+17272Y+13589
Y+13843
Y+12827
Y+13081
Y+12065
Y+12319
Y+11303
Y+11557
Y+10795
Y+10541
Y+10033
Y+9779
X+17018Y+13589
Y+13843
Y+12827
Y+13081
Y+12065
Y+12319
Y+11303
Y+11557
Y+10795
Y+10541
Y+10033
Y+9779
X+17272Y+13335
Y+12573
Y+11811
Y+11049
Y+10287
X+17018Y+13335
Y+12573
Y+11811
Y+11049
Y+10287
X+15367Y+9461
X+15589
X+15113Y+8350
Y+8096
X+14605
X+14351
X+14605Y+8350
X+14351
X+13843Y+8096
X+13589
X+13843Y+8350
X+13589
X+13081Y+8096
X+12827
X+13081Y+8350
X+12827
X+12319Y+8096
X+12065
X+12319Y+8350
X+12065
X+11557Y+8096
X+11303
X+11557Y+8350
X+11303
X+10795Y+8096
X+10541
X+10795Y+8350
X+10541
X+14859Y+8096
Y+8350
X+14097Y+8096
X+13335
X+12573
X+11811
X+14097Y+8350
X+13335
X+12573
X+11811
X+11049Y+8096
X+10287
X+11049Y+8350
X+10287
T04
X+14605Y+8826
X+15367
X+16637
X+15875
X+16530Y+16320
Y+16280
Y+16080
Y+16120
Y+16160
Y+16240
Y+16200
X+17130Y+16080
Y+16120
Y+16280
Y+16320
Y+16160
Y+16240
Y+16200
X+16745Y+16690
X+16905
X+16855
X+16795
X+16700
X+16950
X+16825
T05
X+17200Y+17200
Y+8200
X+17202Y+14426
Y+9196
T06
X+8200Y+8200
Y+17200
Y+12700
T00
M30
